<?xml version="1.0" encoding="utf-8"?>
<!-- Generator: Adobe Illustrator 15.1.0, SVG Export Plug-In . SVG Version: 6.00 Build 0)  -->
<!DOCTYPE svg PUBLIC "-//W3C//DTD SVG 1.1//EN" "http://www.w3.org/Graphics/SVG/1.1/DTD/svg11.dtd">
<svg version="1.1" id="Слой_1" xmlns="http://www.w3.org/2000/svg" xmlns:xlink="http://www.w3.org/1999/xlink" x="0px" y="0px"
	 width="32px" height="32px" viewBox="0 0 32 32" enable-background="new 0 0 32 32" xml:space="preserve">
<path fill="#FFFFFF" d="M22,0c-5.523,0-10,4.477-10,10c0,0.626,0.058,1.238,0.168,1.832L0,24v6c0,1.105,0.895,2,2,2h2v-2h4v-4h4v-4
	h4l2.596-2.595C19.658,19.79,20.805,20,22,20c5.523,0,10-4.477,10-10S27.523,0,22,0z M24.996,10.004c-1.657,0-3-1.343-3-3
	c0-1.657,1.343-3,3-3c1.656,0,3,1.343,3,3C27.996,8.661,26.652,10.004,24.996,10.004z"/>
</svg>
