<?xml version="1.0" encoding="utf-8"?>
<!-- Generator: Adobe Illustrator 15.1.0, SVG Export Plug-In . SVG Version: 6.00 Build 0)  -->
<!DOCTYPE svg PUBLIC "-//W3C//DTD SVG 1.1//EN" "http://www.w3.org/Graphics/SVG/1.1/DTD/svg11.dtd">
<svg version="1.1" id="Слой_1" xmlns="http://www.w3.org/2000/svg" xmlns:xlink="http://www.w3.org/1999/xlink" x="0px" y="0px"
	 width="32px" height="32px" viewBox="0 0 32 32" enable-background="new 0 0 32 32" xml:space="preserve">
<path fill="#C6C7CC" d="M19.607,12.775h-0.531V6.388C19.076,2.866,16.21,0,12.688,0H8.43C4.908,0,2.042,2.866,2.042,6.388v6.388
	H1.509c-0.878,0-1.597,0.718-1.597,1.597v15.97c0,0.878,0.718,1.597,1.597,1.597h18.098c0.879,0,1.598-0.719,1.598-1.597v-15.97
	C21.205,13.494,20.486,12.775,19.607,12.775z M6.3,6.388c0-1.174,0.955-2.129,2.129-2.129h4.258c1.174,0,2.129,0.955,2.129,2.129
	v6.388H6.3V6.388z M6.486,28.14l2.441-6.263c-0.79-0.527-1.312-1.426-1.312-2.447c0-1.625,1.317-2.942,2.943-2.942
	c1.625,0,2.942,1.317,2.942,2.942c0,1.021-0.521,1.92-1.312,2.447l2.441,6.263H6.486z"/>
</svg>
