<?xml version="1.0" encoding="utf-8"?>
<!-- Generator: Adobe Illustrator 15.1.0, SVG Export Plug-In . SVG Version: 6.00 Build 0)  -->
<!DOCTYPE svg PUBLIC "-//W3C//DTD SVG 1.1//EN" "http://www.w3.org/Graphics/SVG/1.1/DTD/svg11.dtd">
<svg version="1.1" id="Слой_1" xmlns="http://www.w3.org/2000/svg" xmlns:xlink="http://www.w3.org/1999/xlink" x="0px" y="0px"
	 width="32px" height="32px" viewBox="0 0 32 32" enable-background="new 0 0 32 32" xml:space="preserve">
<path fill="#C6C7CC" d="M26.827,3H5.366C2.415,3,0,5.375,0,8.278v15.364c0,2.904,2.415,5.279,5.366,5.279h21.461
	c2.954,0,5.366-2.375,5.366-5.279V8.278C32.193,5.375,29.781,3,26.827,3z M5.451,5.613h21.293c0.379,0,0.748,0.08,1.085,0.231
	L16.096,19.311L4.363,5.843c0.339-0.152,0.707-0.232,1.088-0.232V5.613z M2.789,23.941V8.231c0-0.055,0.003-0.11,0.004-0.164
	l7.805,8.958l-7.719,7.594C2.819,24.399,2.788,24.174,2.789,23.941L2.789,23.941z M26.744,26.561H5.451
	c-0.235,0-0.467-0.031-0.688-0.09l7.573-7.451l3.76,4.316l3.763-4.316l7.572,7.451C27.208,26.529,26.978,26.561,26.744,26.561z
	 M29.404,24.455c0,0.23-0.032,0.457-0.092,0.677l-7.719-7.594l7.805-8.958c0.003,0.053,0.003,0.108,0.003,0.164v15.711H29.404z"/>
</svg>
