<?xml version="1.0" encoding="utf-8"?>
<!-- Generator: Adobe Illustrator 15.1.0, SVG Export Plug-In . SVG Version: 6.00 Build 0)  -->
<!DOCTYPE svg PUBLIC "-//W3C//DTD SVG 1.1//EN" "http://www.w3.org/Graphics/SVG/1.1/DTD/svg11.dtd">
<svg version="1.1" id="Слой_1" xmlns="http://www.w3.org/2000/svg" xmlns:xlink="http://www.w3.org/1999/xlink" x="0px" y="0px"
	 width="60.836px" height="60.836px" viewBox="-12.155 -15.112 60.836 60.836"
	 enable-background="new -12.155 -15.112 60.836 60.836" xml:space="preserve">
<path fill-rule="evenodd" clip-rule="evenodd" fill="#ADD136" d="M46.715,3.402c-0.535,0-0.967-0.432-0.967-0.964v-12.98
	L34.967,0.238c0.836,0.909,1.604,1.882,2.303,2.905l0.018-0.019c0.148,0.216,0.281,0.445,0.424,0.666
	c0.035,0.056,0.07,0.11,0.104,0.166c2.561,4.037,4.064,8.81,4.064,13.942c0,14.419-11.686,26.106-26.1,26.106
	c-14.412,0-26.096-11.688-26.096-26.106c0-14.417,11.685-26.104,26.096-26.104c5.465,0,10.533,1.687,14.725,4.556l-1.381,1.381
	c-3.82-2.528-8.402-4.006-13.344-4.006C2.398-6.274-8.382,4.511-8.382,17.898c0,0.348,0.037,0.687,0.052,1.032
	C-4.269,14.869,3.694,6.905,3.694,6.905c0.378-0.377,0.99-0.377,1.367,0l10.252,10.251l29.22-29.219H31.248
	c-0.535,0-0.967-0.434-0.967-0.966c0-0.534,0.432-0.966,0.967-0.966h15.467c0.533,0,0.967,0.432,0.967,0.966V2.438
	C47.682,2.971,47.248,3.402,46.715,3.402z"/>
</svg>
